<svg width="30" height="30" viewBox="0 0 30 30" fill="none" xmlns="http://www.w3.org/2000/svg">
<path d="M21.1614 5.34637L20.1067 5.35768L20.1313 7.64167C17.4493 8.42009 13.7719 8.79819 10.377 9.0229C12.4334 14.6645 16.1987 19.2047 19.6257 24.0891C20.8396 22.9375 22.6204 22.2151 24.5159 21.9791C23.2972 20.9181 22.3694 20.3405 21.0687 17.8519C22.9009 20.0249 24.1495 20.6918 25.6169 21.4851C25.8081 20.7179 26.1406 20.0415 26.7138 19.5706C27.2217 19.1534 27.8872 18.9463 28.6785 18.9645C25.932 15.4628 22.7213 12.1059 21.1884 7.86479L21.1614 5.34643V5.34637ZM9.56538 6.03046L8.51081 6.04475C8.51081 6.04475 8.52546 7.11936 8.54362 8.21096C8.55276 8.75682 8.56267 9.30684 8.57228 9.73024C8.57579 9.8847 8.57913 9.9986 8.58247 10.1136C6.56814 15.0198 4.53048 19.5467 1.32153 23.7918C3.29233 23.7105 5.20782 23.7213 7.09606 23.7894C8.40054 20.1204 8.46399 15.8877 9.18358 11.9531C9.85255 15.9704 9.80268 20.1237 11.1455 24.0135C13.6628 24.1941 16.1664 24.4352 18.7246 24.6537C15.4627 20.0159 11.798 15.5695 9.63564 10.0424C9.63271 9.93802 9.62978 9.84345 9.62673 9.70628C9.61724 9.28698 9.60722 8.73813 9.59813 8.19339C9.57997 7.10389 9.56538 6.03046 9.56538 6.03046Z" fill="#FFD166"/>
</svg>
