<svg width="30" height="30" viewBox="0 0 30 30" fill="none" xmlns="http://www.w3.org/2000/svg">
<g clip-path="url(#clip0_1523_2353)">
<path d="M15 3.99999C13.648 3.97999 13.648 6.01999 15 5.99999H18V8.53199L12.394 13.2L10.446 7.99999H11C12.352 8.01999 12.352 5.97999 11 5.99999H7C5.648 5.97999 5.648 8.01999 7 7.99999H8.304L10.086 12.75C9.12964 12.2634 8.07299 12.0066 7 12C3.146 12 0 15.146 0 19C0 22.854 3.146 26 7 26C10.854 26 14 22.854 14 19C14 17.66 13.6 16.418 12.94 15.352L18.582 10.652L19.508 12.972C17.42 14.188 16 16.422 16 19C16 22.854 19.146 26 23 26C26.854 26 30 22.854 30 19C30 15.146 26.854 12 23 12C22.434 12 21.892 12.086 21.364 12.214L20 8.80399V4.99999C20 4.73478 19.8946 4.48042 19.7071 4.29289C19.5196 4.10535 19.2652 3.99999 19 3.99999H15ZM7 14C8.13253 14.0028 9.23 14.3931 10.11 15.106L6.36 18.23C5.338 19.084 6.616 20.62 7.64 19.77L11.39 16.644C11.766 17.348 12 18.144 12 19C12 21.774 9.774 24 7 24C4.226 24 2 21.774 2 19C2 16.226 4.226 14 7 14ZM23 14C25.774 14 28 16.226 28 19C28 21.774 25.774 24 23 24C20.226 24 18 21.774 18 19C17.9982 18.1717 18.203 17.3561 18.5958 16.6269C18.9887 15.8977 19.5573 15.278 20.25 14.824L22.07 19.372C22.562 20.618 24.43 19.872 23.93 18.628L22.114 14.088C22.4 14.04 22.696 14 23 14Z" fill="#FFD166"/>
</g>
<defs>
<clipPath id="clip0_1523_2353">
<rect width="30" height="30" fill="white"/>
</clipPath>
</defs>
</svg>
