<svg width="30" height="30" viewBox="0 0 30 30" fill="none" xmlns="http://www.w3.org/2000/svg">
<path d="M17.5 12.375V10.25C18.1875 9.95833 18.8908 9.73958 19.61 9.59375C20.3283 9.44792 21.0833 9.375 21.875 9.375C22.4167 9.375 22.9479 9.41667 23.4687 9.5C23.9896 9.58333 24.5 9.6875 25 9.8125V11.8125C24.5 11.625 23.995 11.4846 23.485 11.3912C22.9742 11.2971 22.4375 11.25 21.875 11.25C21.0833 11.25 20.3229 11.3492 19.5937 11.5475C18.8646 11.745 18.1667 12.0208 17.5 12.375ZM17.5 19.25V17.125C18.1875 16.8333 18.8908 16.6146 19.61 16.4687C20.3283 16.3229 21.0833 16.25 21.875 16.25C22.4167 16.25 22.9479 16.2917 23.4687 16.375C23.9896 16.4583 24.5 16.5625 25 16.6875V18.6875C24.5 18.5 23.995 18.3596 23.485 18.2662C22.9742 18.1721 22.4375 18.125 21.875 18.125C21.0833 18.125 20.3229 18.2187 19.5937 18.4062C18.8646 18.5937 18.1667 18.875 17.5 19.25ZM17.5 15.8125V13.6875C18.1875 13.3958 18.8908 13.1771 19.61 13.0312C20.3283 12.8854 21.0833 12.8125 21.875 12.8125C22.4167 12.8125 22.9479 12.8542 23.4687 12.9375C23.9896 13.0208 24.5 13.125 25 13.25V15.25C24.5 15.0625 23.995 14.9221 23.485 14.8287C22.9742 14.7346 22.4375 14.6875 21.875 14.6875C21.0833 14.6875 20.3229 14.7867 19.5937 14.985C18.8646 15.1825 18.1667 15.4583 17.5 15.8125ZM8.125 20C9.10417 20 10.0575 20.1092 10.985 20.3275C11.9117 20.5467 12.8333 20.875 13.75 21.3125V9C12.8958 8.5 11.9896 8.125 11.0312 7.875C10.0729 7.625 9.10417 7.5 8.125 7.5C7.375 7.5 6.63042 7.57292 5.89125 7.71875C5.15125 7.86458 4.4375 8.08333 3.75 8.375V20.75C4.47917 20.5 5.20333 20.3125 5.9225 20.1875C6.64083 20.0625 7.375 20 8.125 20ZM16.25 21.3125C17.1667 20.875 18.0887 20.5467 19.0162 20.3275C19.9429 20.1092 20.8958 20 21.875 20C22.625 20 23.3596 20.0625 24.0787 20.1875C24.7971 20.3125 25.5208 20.5 26.25 20.75V8.375C25.5625 8.08333 24.8492 7.86458 24.11 7.71875C23.37 7.57292 22.625 7.5 21.875 7.5C20.8958 7.5 19.9271 7.625 18.9687 7.875C18.0104 8.125 17.1042 8.5 16.25 9V21.3125ZM15 25C14 24.2083 12.9167 23.5937 11.75 23.1562C10.5833 22.7187 9.375 22.5 8.125 22.5C7.25 22.5 6.39083 22.6146 5.5475 22.8437C4.70333 23.0729 3.89583 23.3958 3.125 23.8125C2.6875 24.0417 2.26583 24.0312 1.86 23.7812C1.45333 23.5312 1.25 23.1667 1.25 22.6875V7.625C1.25 7.39583 1.3075 7.17708 1.4225 6.96875C1.53667 6.76042 1.70833 6.60417 1.9375 6.5C2.89583 6 3.89583 5.625 4.9375 5.375C5.97917 5.125 7.04167 5 8.125 5C9.33333 5 10.5158 5.15625 11.6725 5.46875C12.8283 5.78125 13.9375 6.25 15 6.875C16.0625 6.25 17.1721 5.78125 18.3287 5.46875C19.4846 5.15625 20.6667 5 21.875 5C22.9583 5 24.0208 5.125 25.0625 5.375C26.1042 5.625 27.1042 6 28.0625 6.5C28.2917 6.60417 28.4637 6.76042 28.5787 6.96875C28.6929 7.17708 28.75 7.39583 28.75 7.625V22.6875C28.75 23.1667 28.5471 23.5312 28.1412 23.7812C27.7346 24.0312 27.3125 24.0417 26.875 23.8125C26.1042 23.3958 25.2967 23.0729 24.4525 22.8437C23.6092 22.6146 22.75 22.5 21.875 22.5C20.625 22.5 19.4167 22.7187 18.25 23.1562C17.0833 23.5937 16 24.2083 15 25Z" fill="#FFD166"/>
</svg>
