<svg width="20" height="24" viewBox="0 0 20 24" fill="none" xmlns="http://www.w3.org/2000/svg">
<path d="M16.5571 8.47059H14.2857V1.41176C14.2857 0.635294 13.6429 0 12.8571 0H7.14286C6.35714 0 5.71429 0.635294 5.71429 1.41176V8.47059H3.44286C2.17143 8.47059 1.52857 9.99529 2.42857 10.8847L8.98571 17.3647C9.54286 17.9153 10.4429 17.9153 11 17.3647L17.5571 10.8847C18.4571 9.99529 17.8286 8.47059 16.5571 8.47059ZM0 22.5882C0 23.3647 0.642857 24 1.42857 24H18.5714C19.3571 24 20 23.3647 20 22.5882C20 21.8118 19.3571 21.1765 18.5714 21.1765H1.42857C0.642857 21.1765 0 21.8118 0 22.5882Z" fill="#434343"/>
</svg>
