<svg width="30" height="30" viewBox="0 0 30 30" fill="none" xmlns="http://www.w3.org/2000/svg">
<g clip-path="url(#clip0_1523_2378)">
<path d="M18.75 15H21.25C21.25 11.55 18.45 8.75 15 8.75V11.25C17.075 11.25 18.75 12.925 18.75 15ZM23.75 15H26.25C26.25 8.7875 21.2125 3.75 15 3.75V6.25C19.8375 6.25 23.75 10.1625 23.75 15ZM25 19.375C23.4375 19.375 21.9375 19.125 20.5375 18.6625C20.4125 18.625 20.275 18.6 20.15 18.6C19.825 18.6 19.5125 18.725 19.2625 18.9625L16.5125 21.7125C12.975 19.9125 10.075 17.025 8.275 13.475L11.025 10.7125C11.375 10.3875 11.475 9.9 11.3375 9.4625C10.875 8.0625 10.625 6.5625 10.625 5C10.625 4.3125 10.0625 3.75 9.375 3.75H5C4.3125 3.75 3.75 4.3125 3.75 5C3.75 16.7375 13.2625 26.25 25 26.25C25.6875 26.25 26.25 25.6875 26.25 25V20.625C26.25 19.9375 25.6875 19.375 25 19.375ZM6.2875 6.25H8.1625C8.25 7.35 8.4375 8.4375 8.725 9.475L7.225 10.9875C6.725 9.475 6.4 7.9 6.2875 6.25ZM23.75 23.7125C22.1 23.6 20.5 23.275 19 22.7625L20.5 21.2625C21.5625 21.5625 22.65 21.75 23.75 21.825V23.7125Z" fill="#FFD166"/>
</g>
<defs>
<clipPath id="clip0_1523_2378">
<rect width="30" height="30" fill="white"/>
</clipPath>
</defs>
</svg>
