<svg width="26" height="26" viewBox="0 0 26 26" fill="none" xmlns="http://www.w3.org/2000/svg">
<path d="M19.5 18.4184H6.5V19.5H19.5V18.4184ZM5.41836 1.08164H15.1684V6.5H20.5867V8.66836H21.6684V5.41836L16.25 0H4.33164V8.66836H5.41328V1.08164H5.41836ZM22.75 9.75H3.25C1.08164 9.75 0 10.8316 0 13V19.5H4.33164V26H21.6633V19.5H26V13C26 10.8316 24.9184 9.75 22.75 9.75ZM4.33164 14.0816H2.16836V11.9133H4.33672V14.0816H4.33164ZM20.5816 24.9184H5.41836V17.3316H20.5867V24.9184H20.5816ZM19.5 20.5816H6.5V21.6633H19.5V20.5816ZM19.5 22.75H6.5V23.8316H19.5V22.75Z" fill="#434343"/>
</svg>
