<svg width="26" height="15" viewBox="0 0 26 15" fill="none" xmlns="http://www.w3.org/2000/svg">
<path d="M18 4.5C18.6904 4.5 19.25 3.94036 19.25 3.25C19.25 2.55964 18.6904 2 18 2C17.3096 2 16.75 2.55964 16.75 3.25C16.75 3.94036 17.3096 4.5 18 4.5Z" stroke="#FFD166" stroke-width="3" stroke-linecap="round" stroke-linejoin="round"/>
<path d="M5.5 5.75L10.5 3.25L14.875 7L13 9.5M1.75 12.9375C2.13912 13.131 2.56562 13.2376 3 13.25C3.48687 13.2602 3.9689 13.1517 4.40447 12.9339C4.84003 12.7162 5.21604 12.3956 5.5 12C5.78396 11.6044 6.15997 11.2838 6.59553 11.0661C7.0311 10.8483 7.51313 10.7398 8 10.75C8.48687 10.7398 8.9689 10.8483 9.40447 11.0661C9.84004 11.2838 10.216 11.6044 10.5 12C10.784 12.3956 11.16 12.7162 11.5955 12.9339C12.0311 13.1517 12.5131 13.2602 13 13.25C13.4869 13.2602 13.9689 13.1517 14.4045 12.9339C14.84 12.7162 15.216 12.3956 15.5 12C15.784 11.6044 16.16 11.2838 16.5955 11.0661C17.0311 10.8483 17.5131 10.7398 18 10.75C18.4869 10.7398 18.9689 10.8483 19.4045 11.0661C19.84 11.2838 20.216 11.6044 20.5 12C20.784 12.3956 21.16 12.7162 21.5955 12.9339C22.0311 13.1517 22.5131 13.2602 23 13.25C23.4344 13.2376 23.8609 13.131 24.25 12.9375" stroke="#FFD166" stroke-width="3" stroke-linecap="round" stroke-linejoin="round"/>
</svg>
